# xmcd CD database file
#
# Track frame offsets:
#	150
#	23852
#	42517
#	58349
#	81187
#	98645
#	128636
#	155884
#	176897
#	197597
#	215958
#	235501
#	252541
#	268706
#	289728
#	305358
#	328073
#	340754
#
# Disc length: 4759 seconds
#
# Revision: 7
# Processed by: cddbd v1.5.2PL0 Copyright (c) Steve Scherf et al.
# Submitted via: CDex 1.70beta2
#
DISCID=13129512
DTITLE=Various Artist - Mystera 6
DYEAR=2000
DGENRE=New Age
TTITLE0=Queen - Who Wants To Live Forever
TTITLE1=Enigma - Return To Innocence
TTITLE2=Rosenstolz - Amo Vitam
TTITLE3=Loreena McKennitt - The Mummers' Dance
TTITLE4=Gregorian - Brothers In Arms
TTITLE5=Simple Minds - Belfast Child
TTITLE6=Sinead O'Connor - On Raglan Road
TTITLE7=Oliver Shanti u. Friends - White Mother Of The Universe
TTITLE8=Capercaillie - Nil Si I nGra
TTITLE9=Era - Misere Mani
TTITLE10=Elysia - Elysium
TTITLE11=Blackmore's Night - Greensleeves
TTITLE12=Highland - Se Tu Vuoi
TTITLE13=Runrig - 2000 Years
TTITLE14=Sally Oldfield - Mirrors
TTITLE15=The City Of Prague Philharmonic - My Heart Will Go On
TTITLE16=The Corrs - Toss The Feathers
TTITLE17=Ortiga - Ilumkarada
EXTD=YEAR: 2000
EXTT0=
EXTT1=
EXTT2=
EXTT3=
EXTT4=
EXTT5=
EXTT6=
EXTT7=
EXTT8=
EXTT9=
EXTT10=
EXTT11=
EXTT12=
EXTT13=
EXTT14=
EXTT15=
EXTT16=
EXTT17=
PLAYORDER=
